<svg width="114" height="114" viewBox="0 0 114 114" fill="none" xmlns="http://www.w3.org/2000/svg">
<path d="M12.73 25.46C13.04 25.46 13.36 25.44 13.67 25.42C8.05004 24.97 3.62004 20.28 3.62004 14.54C3.62004 8.50995 8.51004 3.61996 14.54 3.61996C20.57 3.61996 24.98 8.03996 25.42 13.67C25.44 13.36 25.46 13.05 25.46 12.73C25.46 5.69996 19.76 -3.8147e-05 12.73 -3.8147e-05C5.70004 -3.8147e-05 3.8147e-05 5.69996 3.8147e-05 12.73C3.8147e-05 19.76 5.70004 25.46 12.73 25.46Z" fill="#FCC76C"/>
<path d="M13.0201 17.5103C13.2501 13.4203 13.4401 13.2403 17.5201 13.0103C13.4301 12.7803 13.2501 12.5903 13.0201 8.51025C12.7901 12.6003 12.6001 12.7803 8.5201 13.0103C12.6101 13.2403 12.7901 13.4303 13.0201 17.5103Z" fill="#FCC76C"/>
<path d="M16.93 18.3403C16.8 20.5803 16.7 20.6803 14.46 20.8103C16.7 20.9403 16.8 21.0403 16.93 23.2803C17.06 21.0403 17.16 20.9403 19.4 20.8103C17.16 20.6803 17.06 20.5803 16.93 18.3403Z" fill="#FCC76C"/>
<path d="M21.58 13.7902C21.5 15.2102 21.43 15.2802 20.01 15.3602C21.44 15.4402 21.5 15.5102 21.58 16.9302C21.66 15.5102 21.73 15.4402 23.15 15.3602C21.72 15.2802 21.66 15.2102 21.58 13.7902Z" fill="#FCC76C"/>
<path d="M18.5499 8.97004C18.8099 8.71004 18.8099 8.29004 18.5499 8.03004C18.2899 7.77004 17.8699 7.77004 17.6099 8.03004C17.3499 8.29004 17.3499 8.71004 17.6099 8.97004C17.8699 9.23004 18.2899 9.23004 18.5499 8.97004Z" fill="#FCC76C"/>
<path d="M8.39999 17.5701C8.13999 17.8301 8.13999 18.2501 8.39999 18.5101C8.65999 18.7701 9.07999 18.7701 9.33999 18.5101C9.59999 18.2501 9.59999 17.8301 9.33999 17.5701C9.07999 17.3101 8.65999 17.3101 8.39999 17.5701Z" fill="#FCC76C"/>
<path d="M10.11 27.5999C9.42002 26.9099 8.30002 26.9099 7.60002 27.5999C6.91002 28.2899 6.91002 29.4199 7.60002 30.1099C8.29002 30.7999 9.42002 30.7999 10.11 30.1099C10.8 29.4199 10.8 28.2999 10.11 27.5999Z" fill="#FCC76C"/>
<path d="M8.84998 34.7003C8.26456 34.7003 7.78999 35.1749 7.78999 35.7603C7.78999 36.3457 8.26456 36.8203 8.84998 36.8203C9.43541 36.8203 9.90999 36.3457 9.90999 35.7603C9.90999 35.1749 9.43541 34.7003 8.84998 34.7003Z" fill="#FCC76C"/>
<path d="M8.25005 41.5004C8.25005 41.8404 8.52005 42.1104 8.86005 42.1104C9.20005 42.1104 9.47005 41.8404 9.47005 41.5004C9.47005 41.1604 9.20005 40.8904 8.86005 40.8904C8.52005 40.8904 8.25005 41.1604 8.25005 41.5004Z" fill="#FCC76C"/>
<path d="M12.4501 38.3202C14.0301 40.1802 13.9501 42.9702 12.1901 44.7202C10.3401 46.5602 7.35012 46.5602 5.51012 44.7202C3.76012 42.9602 3.67012 40.1702 5.25012 38.3202C5.15012 38.4102 5.05011 38.5002 4.95011 38.5902C2.80011 40.7402 2.80011 44.2302 4.95011 46.3802C7.10011 48.5302 10.5901 48.5302 12.7401 46.3802C14.8901 44.2302 14.8901 40.7402 12.7401 38.5902C12.6401 38.4902 12.5401 38.4002 12.4401 38.3202H12.4501Z" fill="#FCC76C"/>
<path d="M10.0299 52.89C10.0299 52.8 10.0099 52.71 9.98993 52.62C9.67993 51.3 8.03994 51.3 7.72994 52.62C7.70994 52.71 7.68994 52.8 7.68994 52.89C7.62994 53.85 8.85993 77.96 8.85993 77.96C8.85993 77.96 10.0899 53.85 10.0299 52.89Z" fill="#FCC76C"/>
<path d="M8.84993 81.2902C8.62993 86.1402 8.45993 86.3702 4.59993 86.6402C8.44993 86.9202 8.62993 87.1402 8.84993 91.9902C9.06993 87.1402 9.23993 86.9102 13.0999 86.6402C9.24993 86.3702 9.06993 86.1402 8.84993 81.2902Z" fill="#FCC76C"/>
<path d="M30.55 13.8399C31.24 13.1499 31.24 12.0199 30.55 11.3299C29.86 10.6399 28.74 10.6399 28.04 11.3299C27.35 12.0199 27.35 13.1399 28.04 13.8399C28.73 14.5299 29.86 14.5299 30.55 13.8399Z" fill="#FCC76C"/>
<path d="M36.2001 13.6499C36.7901 13.6499 37.2601 13.1699 37.2601 12.5899C37.2601 12.0099 36.7801 11.5299 36.2001 11.5299C35.6201 11.5299 35.1401 12.0099 35.1401 12.5899C35.1401 13.1699 35.6201 13.6499 36.2001 13.6499Z" fill="#FCC76C"/>
<path d="M42.5501 12.5902C42.5501 12.2502 42.2801 11.9802 41.9401 11.9802C41.6001 11.9802 41.3301 12.2502 41.3301 12.5902C41.3301 12.9302 41.6001 13.2002 41.9401 13.2002C42.2801 13.2002 42.5501 12.9302 42.5501 12.5902Z" fill="#FCC76C"/>
<path d="M39.0299 16.4803C41.1799 18.6303 44.6699 18.6303 46.8199 16.4803C48.9699 14.3303 48.9699 10.8403 46.8199 8.69027C44.6699 6.54027 41.1799 6.54027 39.0299 8.69027C38.9299 8.79027 38.84 8.89028 38.76 8.99028C40.62 7.41028 43.41 7.49028 45.16 9.25028C47.01 11.0903 47.01 14.0903 45.16 15.9303C43.4 17.6803 40.61 17.7703 38.76 16.1803C38.85 16.2803 38.9399 16.3803 39.0299 16.4803Z" fill="#FCC76C"/>
<path d="M9.56989 95.5001C9.36989 94.6601 8.33989 94.6601 8.13989 95.5001C8.12989 95.5601 8.11989 95.6201 8.10989 95.6701C8.06989 96.2801 8.84989 113.87 8.84989 113.87C8.84989 113.87 9.6299 96.2801 9.5899 95.6701C9.5899 95.6101 9.57989 95.5501 9.55989 95.5001H9.56989Z" fill="#FCC76C"/>
<path d="M53.4 13.7C53.49 13.72 53.58 13.74 53.67 13.74C54.62 13.8 77.65 12.58 77.65 12.58C77.65 12.58 54.62 11.36 53.67 11.42C53.58 11.42 53.49 11.44 53.4 11.46C52.1 11.77 52.1 13.38 53.4 13.7Z" fill="#FCC76C"/>
<path d="M86.2301 16.7803C86.5001 12.9703 86.7201 12.7903 91.5201 12.5803C86.7201 12.3603 86.5001 12.1903 86.2301 8.38027C85.9601 12.1903 85.7401 12.3703 80.9401 12.5803C85.7401 12.8003 85.9601 12.9703 86.2301 16.7803Z" fill="#FCC76C"/>
<path d="M95 13.2903C95.06 13.3003 95.12 13.3103 95.17 13.3203C95.77 13.3603 113.17 12.5803 113.17 12.5803C113.17 12.5803 95.77 11.8103 95.17 11.8403C95.11 11.8403 95.06 11.8503 95 11.8703C94.17 12.0703 94.17 13.0903 95 13.2903Z" fill="#FCC76C"/>
</svg>
