<svg width="40" height="40" viewBox="0 0 40 40" fill="none" xmlns="http://www.w3.org/2000/svg">
<path d="M34.0469 17.2033L21.5469 4.70328C21.3437 4.50013 21.1026 4.33898 20.8372 4.22904C20.5718 4.11909 20.2873 4.0625 20 4.0625C19.7127 4.0625 19.4282 4.11909 19.1628 4.22904C18.8974 4.33898 18.6563 4.50013 18.4531 4.70328L5.95313 17.2033C5.74945 17.406 5.58797 17.6471 5.47801 17.9126C5.36805 18.1781 5.3118 18.4628 5.31251 18.7502V33.7502C5.31251 33.9988 5.41128 34.2373 5.58709 34.4131C5.76291 34.5889 6.00137 34.6877 6.25001 34.6877H33.75C33.9986 34.6877 34.2371 34.5889 34.4129 34.4131C34.5887 34.2373 34.6875 33.9988 34.6875 33.7502V18.7502C34.6882 18.4628 34.632 18.1781 34.522 17.9126C34.412 17.6471 34.2506 17.406 34.0469 17.2033ZM32.8125 32.8127H7.18751V18.7502C7.18727 18.709 7.19515 18.6683 7.2107 18.6302C7.22625 18.5921 7.24917 18.5575 7.27813 18.5283L19.7781 6.02828C19.8072 5.99899 19.8417 5.97574 19.8798 5.95988C19.9179 5.94401 19.9588 5.93585 20 5.93585C20.0413 5.93585 20.0821 5.94401 20.1202 5.95988C20.1583 5.97574 20.1928 5.99899 20.2219 6.02828L32.7219 18.5283C32.7508 18.5575 32.7738 18.5921 32.7893 18.6302C32.8049 18.6683 32.8127 18.709 32.8125 18.7502V32.8127Z" fill="#FDE2B6"/>
</svg>
