<svg width="40" height="40" viewBox="0 0 40 40" fill="none" xmlns="http://www.w3.org/2000/svg">
<path d="M36.25 7.8125H25C24.0034 7.81324 23.023 8.06481 22.1492 8.54404C21.2754 9.02326 20.5363 9.71472 20 10.5547C19.4637 9.71472 18.7246 9.02326 17.8508 8.54404C16.977 8.06481 15.9966 7.81324 15 7.8125H3.75C3.50136 7.8125 3.2629 7.91127 3.08709 8.08709C2.91127 8.2629 2.8125 8.50136 2.8125 8.75V31.25C2.8125 31.4986 2.91127 31.7371 3.08709 31.9129C3.2629 32.0887 3.50136 32.1875 3.75 32.1875H15C16.0774 32.1875 17.1108 32.6155 17.8726 33.3774C18.6345 34.1392 19.0625 35.1726 19.0625 36.25C19.0625 36.4986 19.1613 36.7371 19.3371 36.9129C19.5129 37.0887 19.7514 37.1875 20 37.1875C20.2486 37.1875 20.4871 37.0887 20.6629 36.9129C20.8387 36.7371 20.9375 36.4986 20.9375 36.25C20.9375 35.1726 21.3655 34.1392 22.1274 33.3774C22.8892 32.6155 23.9226 32.1875 25 32.1875H36.25C36.4986 32.1875 36.7371 32.0887 36.9129 31.9129C37.0887 31.7371 37.1875 31.4986 37.1875 31.25V8.75C37.1875 8.50136 37.0887 8.2629 36.9129 8.08709C36.7371 7.91127 36.4986 7.8125 36.25 7.8125ZM15 30.3125H4.6875V9.6875H15C16.0774 9.6875 17.1108 10.1155 17.8726 10.8774C18.6345 11.6392 19.0625 12.6726 19.0625 13.75V31.9234C17.9636 30.8876 16.5101 30.3113 15 30.3125ZM35.3125 30.3125H25C23.4897 30.3118 22.0362 30.8887 20.9375 31.925V13.75C20.9375 12.6726 21.3655 11.6392 22.1274 10.8774C22.8892 10.1155 23.9226 9.6875 25 9.6875H35.3125V30.3125ZM25 14.0625H31.25C31.4986 14.0625 31.7371 14.1613 31.9129 14.3371C32.0887 14.5129 32.1875 14.7514 32.1875 15C32.1875 15.2486 32.0887 15.4871 31.9129 15.6629C31.7371 15.8387 31.4986 15.9375 31.25 15.9375H25C24.7514 15.9375 24.5129 15.8387 24.3371 15.6629C24.1613 15.4871 24.0625 15.2486 24.0625 15C24.0625 14.7514 24.1613 14.5129 24.3371 14.3371C24.5129 14.1613 24.7514 14.0625 25 14.0625ZM32.1875 20C32.1875 20.2486 32.0887 20.4871 31.9129 20.6629C31.7371 20.8387 31.4986 20.9375 31.25 20.9375H25C24.7514 20.9375 24.5129 20.8387 24.3371 20.6629C24.1613 20.4871 24.0625 20.2486 24.0625 20C24.0625 19.7514 24.1613 19.5129 24.3371 19.3371C24.5129 19.1613 24.7514 19.0625 25 19.0625H31.25C31.4986 19.0625 31.7371 19.1613 31.9129 19.3371C32.0887 19.5129 32.1875 19.7514 32.1875 20ZM32.1875 25C32.1875 25.2486 32.0887 25.4871 31.9129 25.6629C31.7371 25.8387 31.4986 25.9375 31.25 25.9375H25C24.7514 25.9375 24.5129 25.8387 24.3371 25.6629C24.1613 25.4871 24.0625 25.2486 24.0625 25C24.0625 24.7514 24.1613 24.5129 24.3371 24.3371C24.5129 24.1613 24.7514 24.0625 25 24.0625H31.25C31.4986 24.0625 31.7371 24.1613 31.9129 24.3371C32.0887 24.5129 32.1875 24.7514 32.1875 25Z" fill="#FDE2B6"/>
</svg>
