<svg width="114" height="114" viewBox="0 0 114 114" fill="none" xmlns="http://www.w3.org/2000/svg">
<path d="M100.44 25.46C100.13 25.46 99.81 25.44 99.5 25.42C105.12 24.97 109.55 20.28 109.55 14.54C109.55 8.50995 104.66 3.61996 98.63 3.61996C92.6 3.61996 88.19 8.03996 87.75 13.67C87.73 13.36 87.71 13.05 87.71 12.73C87.71 5.69996 93.41 -3.8147e-05 100.44 -3.8147e-05C107.47 -3.8147e-05 113.17 5.69996 113.17 12.73C113.17 19.76 107.47 25.46 100.44 25.46Z" fill="#FCC76C"/>
<path d="M100.15 17.5103C99.9199 13.4203 99.7299 13.2403 95.6499 13.0103C99.7399 12.7803 99.9199 12.5903 100.15 8.51025C100.38 12.6003 100.57 12.7803 104.65 13.0103C100.56 13.2403 100.38 13.4303 100.15 17.5103Z" fill="#FCC76C"/>
<path d="M96.24 18.3403C96.37 20.5803 96.47 20.6803 98.71 20.8103C96.47 20.9403 96.37 21.0403 96.24 23.2803C96.11 21.0403 96.01 20.9403 93.77 20.8103C96.01 20.6803 96.11 20.5803 96.24 18.3403Z" fill="#FCC76C"/>
<path d="M91.59 13.7902C91.67 15.2102 91.74 15.2802 93.16 15.3602C91.73 15.4402 91.67 15.5102 91.59 16.9302C91.51 15.5102 91.44 15.4402 90.02 15.3602C91.45 15.2802 91.51 15.2102 91.59 13.7902Z" fill="#FCC76C"/>
<path d="M94.62 8.97004C94.36 8.71004 94.36 8.29004 94.62 8.03004C94.88 7.77004 95.3001 7.77004 95.5601 8.03004C95.8201 8.29004 95.8201 8.71004 95.5601 8.97004C95.3001 9.23004 94.88 9.23004 94.62 8.97004Z" fill="#FCC76C"/>
<path d="M104.77 17.5701C105.03 17.8301 105.03 18.2501 104.77 18.5101C104.51 18.7701 104.09 18.7701 103.83 18.5101C103.57 18.2501 103.57 17.8301 103.83 17.5701C104.09 17.3101 104.51 17.3101 104.77 17.5701Z" fill="#FCC76C"/>
<path d="M103.06 27.5999C103.75 26.9099 104.87 26.9099 105.57 27.5999C106.26 28.2899 106.26 29.4199 105.57 30.1099C104.88 30.7999 103.75 30.7999 103.06 30.1099C102.37 29.4199 102.37 28.2999 103.06 27.5999Z" fill="#FCC76C"/>
<path d="M104.32 34.7003C104.905 34.7003 105.38 35.1749 105.38 35.7603C105.38 36.3457 104.905 36.8203 104.32 36.8203C103.735 36.8203 103.26 36.3457 103.26 35.7603C103.26 35.1749 103.735 34.7003 104.32 34.7003Z" fill="#FCC76C"/>
<path d="M104.92 41.5004C104.92 41.8404 104.65 42.1104 104.31 42.1104C103.97 42.1104 103.7 41.8404 103.7 41.5004C103.7 41.1604 103.97 40.8904 104.31 40.8904C104.65 40.8904 104.92 41.1604 104.92 41.5004Z" fill="#FCC76C"/>
<path d="M100.72 38.3202C99.1399 40.1802 99.2199 42.9702 100.98 44.7202C102.83 46.5602 105.82 46.5602 107.66 44.7202C109.41 42.9602 109.5 40.1702 107.92 38.3202C108.02 38.4102 108.12 38.5002 108.22 38.5902C110.37 40.7402 110.37 44.2302 108.22 46.3802C106.07 48.5302 102.58 48.5302 100.43 46.3802C98.2799 44.2302 98.2799 40.7402 100.43 38.5902C100.53 38.4902 100.63 38.4002 100.73 38.3202H100.72Z" fill="#FCC76C"/>
<path d="M103.14 52.89C103.14 52.8 103.16 52.71 103.18 52.62C103.49 51.3 105.13 51.3 105.44 52.62C105.46 52.71 105.48 52.8 105.48 52.89C105.54 53.85 104.31 77.96 104.31 77.96C104.31 77.96 103.08 53.85 103.14 52.89Z" fill="#FCC76C"/>
<path d="M104.32 81.2902C104.54 86.1402 104.71 86.3702 108.57 86.6402C104.72 86.9202 104.54 87.1402 104.32 91.9902C104.1 87.1402 103.93 86.9102 100.07 86.6402C103.92 86.3702 104.1 86.1402 104.32 81.2902Z" fill="#FCC76C"/>
<path d="M82.62 13.8399C81.93 13.1499 81.93 12.0199 82.62 11.3299C83.31 10.6399 84.43 10.6399 85.13 11.3299C85.82 12.0199 85.82 13.1399 85.13 13.8399C84.44 14.5299 83.31 14.5299 82.62 13.8399Z" fill="#FCC76C"/>
<path d="M76.9699 13.6499C76.3799 13.6499 75.9099 13.1699 75.9099 12.5899C75.9099 12.0099 76.3899 11.5299 76.9699 11.5299C77.5499 11.5299 78.0299 12.0099 78.0299 12.5899C78.0299 13.1699 77.5499 13.6499 76.9699 13.6499Z" fill="#FCC76C"/>
<path d="M70.6201 12.5902C70.6201 12.2502 70.8901 11.9802 71.2301 11.9802C71.5701 11.9802 71.8401 12.2502 71.8401 12.5902C71.8401 12.9302 71.5701 13.2002 71.2301 13.2002C70.8901 13.2002 70.6201 12.9302 70.6201 12.5902Z" fill="#FCC76C"/>
<path d="M74.14 16.4803C71.99 18.6303 68.5 18.6303 66.35 16.4803C64.2 14.3303 64.2 10.8403 66.35 8.69027C68.5 6.54027 71.99 6.54027 74.14 8.69027C74.24 8.79027 74.33 8.89028 74.41 8.99028C72.55 7.41028 69.76 7.49028 68.01 9.25028C66.16 11.0903 66.16 14.0903 68.01 15.9303C69.77 17.6803 72.56 17.7703 74.41 16.1803C74.32 16.2803 74.23 16.3803 74.14 16.4803Z" fill="#FCC76C"/>
<path d="M103.6 95.5001C103.8 94.6601 104.83 94.6601 105.03 95.5001C105.04 95.5601 105.05 95.6201 105.06 95.6701C105.1 96.2801 104.32 113.87 104.32 113.87C104.32 113.87 103.54 96.2801 103.58 95.6701C103.58 95.6101 103.59 95.5501 103.61 95.5001H103.6Z" fill="#FCC76C"/>
<path d="M59.77 13.7C59.68 13.72 59.59 13.74 59.5 13.74C58.55 13.8 35.52 12.58 35.52 12.58C35.52 12.58 58.55 11.36 59.5 11.42C59.59 11.42 59.68 11.44 59.77 11.46C61.07 11.77 61.07 13.38 59.77 13.7Z" fill="#FCC76C"/>
<path d="M26.9399 16.7803C26.6699 12.9703 26.4499 12.7903 21.6499 12.5803C26.4499 12.3603 26.6699 12.1903 26.9399 8.38027C27.2099 12.1903 27.4299 12.3703 32.2299 12.5803C27.4299 12.8003 27.2099 12.9703 26.9399 16.7803Z" fill="#FCC76C"/>
<path d="M18.17 13.2903C18.11 13.3003 18.05 13.3103 18 13.3203C17.4 13.3603 0 12.5803 0 12.5803C0 12.5803 17.4 11.8103 18 11.8403C18.06 11.8403 18.11 11.8503 18.17 11.8703C19 12.0703 19 13.0903 18.17 13.2903Z" fill="#FCC76C"/>
</svg>
