<svg width="223" height="12" viewBox="0 0 223 12" fill="none" xmlns="http://www.w3.org/2000/svg">
<path d="M81.1584 0.043127C85.8905 5.38973 85.8797 5.88558 81.1152 11.2537C86.4942 6.48923 86.99 6.48922 92.3259 11.2106C87.5937 5.86401 87.6045 5.36816 92.369 0C86.99 4.76452 86.4942 4.76452 81.1584 0.043127Z" fill="#FCC76C"/>
<path d="M56.0529 0.65752C55.7834 5.13099 55.5678 5.3466 51.1267 5.62686C55.5678 5.89635 55.7834 6.1227 56.0529 10.5962C56.3224 6.1227 56.538 5.90713 60.9791 5.62686C56.538 5.35738 56.3224 5.13099 56.0529 0.65752Z" fill="#FCC76C"/>
<path d="M80.1235 4.63514C79.5738 4.63514 79.1318 5.07711 79.1318 5.62686C79.1318 6.17661 79.5738 6.61855 80.1235 6.61855C80.6733 6.61855 81.126 6.17661 81.126 5.62686C81.126 5.07711 80.6841 4.63514 80.1235 4.63514Z" fill="#FCC76C"/>
<path d="M47.8715 4.39798C47.2248 4.39798 0 5.62686 0 5.62686C0 5.62686 47.2248 6.8557 47.8715 6.8557C48.5183 6.8557 49.0465 6.30596 49.0465 5.62686C49.0465 4.94775 48.5183 4.39798 47.8715 4.39798Z" fill="#FCC76C"/>
<path d="M65.4203 3.72968C64.3747 3.72968 63.5339 4.58127 63.5339 5.62687C63.5339 6.67248 64.3855 7.51327 65.4203 7.51327C66.4552 7.51327 67.3067 6.6617 67.3067 5.62687C67.3067 4.59205 66.4552 3.72968 65.4203 3.72968Z" fill="#FCC76C"/>
<path d="M71.0583 4.21476C70.2822 4.21476 69.657 4.83995 69.657 5.61607C69.657 6.39219 70.2822 7.01742 71.0583 7.01742C71.8344 7.01742 72.4596 6.38142 72.4596 5.61607C72.4596 4.85073 71.8344 4.21476 71.0583 4.21476Z" fill="#FCC76C"/>
<path d="M75.8008 4.63514C75.251 4.63514 74.8091 5.07711 74.8091 5.62686C74.8091 6.17661 75.251 6.61855 75.8008 6.61855C76.3505 6.61855 76.7925 6.17661 76.7925 5.62686C76.7925 5.07711 76.3505 4.63514 75.8008 4.63514Z" fill="#FCC76C"/>
<path d="M141.556 11.2106C136.824 5.86401 136.835 5.36817 141.599 9.53674e-07C136.22 4.76452 135.725 4.76453 130.389 0.043128C135.121 5.38973 135.11 5.88558 130.346 11.2537C135.725 6.48923 136.22 6.48922 141.556 11.2106Z" fill="#FCC76C"/>
<path d="M166.662 10.5962C166.931 6.12275 167.147 5.90715 171.588 5.62688C167.147 5.35739 166.931 5.13104 166.662 0.657572C166.392 5.13104 166.177 5.34661 161.735 5.62688C166.177 5.89637 166.392 6.12275 166.662 10.5962Z" fill="#FCC76C"/>
<path d="M142.591 6.6186C143.141 6.6186 143.583 6.17663 143.583 5.62688C143.583 5.07713 143.141 4.63519 142.591 4.63519C142.041 4.63519 141.589 5.07713 141.589 5.62688C141.589 6.17663 142.031 6.6186 142.591 6.6186Z" fill="#FCC76C"/>
<path d="M174.843 6.85576C175.49 6.85576 222.715 5.62689 222.715 5.62689C222.715 5.62689 175.49 4.39805 174.843 4.39805C174.196 4.39805 173.668 4.94778 173.668 5.62689C173.668 6.30599 174.196 6.85576 174.843 6.85576Z" fill="#FCC76C"/>
<path d="M157.294 7.52406C158.34 7.52406 159.181 6.67248 159.181 5.62687C159.181 4.58126 158.329 3.74047 157.294 3.74047C156.259 3.74047 155.408 4.59204 155.408 5.62687C155.408 6.6617 156.259 7.52406 157.294 7.52406Z" fill="#FCC76C"/>
<path d="M151.656 7.03898C152.432 7.03898 153.058 6.41379 153.058 5.63767C153.058 4.86155 152.432 4.23632 151.656 4.23632C150.88 4.23632 150.255 4.87233 150.255 5.63767C150.255 6.40301 150.88 7.03898 151.656 7.03898Z" fill="#FCC76C"/>
<path d="M146.914 6.6186C147.464 6.6186 147.906 6.17663 147.906 5.62688C147.906 5.07713 147.464 4.63519 146.914 4.63519C146.364 4.63519 145.922 5.07713 145.922 5.62688C145.922 6.17663 146.364 6.6186 146.914 6.6186Z" fill="#FCC76C"/>
</svg>
