<svg width="156" height="103" viewBox="0 0 156 103" fill="none" xmlns="http://www.w3.org/2000/svg">
<g opacity="0.13">
<path d="M78.4478 0C71.6833 66.1842 66.1842 71.6833 0 78.4478C66.1842 85.2122 71.6833 90.7113 78.4478 156.896C85.2122 90.7113 90.7113 85.2122 156.896 78.4478C90.7113 71.6833 85.2122 66.1842 78.4478 0ZM78.4478 99.5683C66.7682 99.5683 57.3274 90.0787 57.3274 78.4478C57.3274 66.8168 66.7682 57.3272 78.4478 57.3272C90.1273 57.3272 99.5684 66.7682 99.5684 78.4478C99.5684 90.1273 90.1273 99.5683 78.4478 99.5683Z" fill="#FCC76C"/>
<path d="M78.4481 65.0166C71.051 65.0166 65.0168 71.0024 65.0168 78.4482C65.0168 85.8939 71.0024 91.8797 78.4481 91.8797C85.8938 91.8797 91.8797 85.8939 91.8797 78.4482C91.8797 71.0024 85.8938 65.0166 78.4481 65.0166ZM78.4481 88.0839C73.095 88.0839 68.7638 83.7526 68.7638 78.3994C68.7638 73.0463 73.095 68.7152 78.4481 68.7152C83.8012 68.7152 88.1327 73.0463 88.1327 78.3994C88.1327 83.7526 83.8012 88.0839 78.4481 88.0839Z" fill="#FCC76C"/>
<path d="M78.448 75.8691C77.0367 75.8691 75.8689 77.0371 75.8689 78.4484C75.8689 79.8597 77.0367 81.0276 78.448 81.0276C79.8593 81.0276 81.0274 79.8597 81.0274 78.4484C81.0274 77.0371 79.8593 75.8691 78.448 75.8691Z" fill="#FCC76C"/>
<path d="M96.7954 22.4349C96.7954 24.9654 98.8393 27.0094 101.37 27.0094C103.9 27.0094 105.944 24.9654 105.944 22.4349C105.944 19.9043 103.9 17.8604 101.37 17.8604C98.8393 17.8604 96.7954 19.9043 96.7954 22.4349Z" fill="#FCC76C"/>
<path d="M55.5264 27.0582C58.057 27.0582 60.1009 25.0143 60.1009 22.4837C60.1009 19.9531 58.057 17.9092 55.5264 17.9092C52.9958 17.9092 50.9519 19.9531 50.9519 22.4837C50.9519 25.0143 52.9958 27.0582 55.5264 27.0582Z" fill="#FCC76C"/>
<path d="M128.475 101.369C128.475 103.9 130.519 105.943 133.049 105.943C135.58 105.943 137.624 103.9 137.624 101.369C137.624 98.8384 135.58 96.7944 133.049 96.7944C130.519 96.7944 128.475 98.8384 128.475 101.369Z" fill="#FCC76C"/>
<path d="M128.475 55.5271C128.475 58.0577 130.519 60.1017 133.049 60.1017C135.58 60.1017 137.624 58.0577 137.624 55.5271C137.624 52.9966 135.58 50.9526 133.049 50.9526C130.519 50.9526 128.475 52.9966 128.475 55.5271Z" fill="#FCC76C"/>
<path d="M28.4203 101.369C28.4203 98.8384 26.3763 96.7944 23.8458 96.7944C21.3152 96.7944 19.2712 98.8384 19.2712 101.369C19.2712 103.9 21.3152 105.943 23.8458 105.943C26.3763 105.943 28.4203 103.9 28.4203 101.369Z" fill="#FCC76C"/>
<path d="M19.2712 55.5271C19.2712 58.0577 21.3152 60.1017 23.8458 60.1017C26.3763 60.1017 28.4203 58.0577 28.4203 55.5271C28.4203 52.9966 26.3763 50.9526 23.8458 50.9526C21.3152 50.9526 19.2712 52.9966 19.2712 55.5271Z" fill="#FCC76C"/>
<path d="M105.262 46.1343C105.262 46.1343 105.068 46.3775 104.97 46.4749C106.917 48.1295 108.718 49.9301 110.372 51.8767C110.47 51.7794 110.616 51.6821 110.713 51.5848C113.633 48.8595 149.402 7.39697 149.402 7.39697C149.402 7.39697 107.939 43.1657 105.214 46.0856L105.262 46.1343Z" fill="#FCC76C"/>
<path d="M46.1829 51.6336C46.1829 51.6336 46.4262 51.8282 46.5235 51.9255C48.1781 49.9789 49.979 48.1784 51.9256 46.5238C51.8282 46.4265 51.7309 46.2804 51.6336 46.1831C48.9084 43.2632 7.4458 7.49463 7.4458 7.49463C7.4458 7.49463 43.2145 48.957 46.1344 51.6823L46.1829 51.6336Z" fill="#FCC76C"/>
</g>
</svg>
